<svg width="54" height="79" viewBox="0 0 54 79" fill="none" xmlns="http://www.w3.org/2000/svg">
<path d="M43.5692 64.7867L43.5692 74.216C43.5695 74.8913 43.348 75.4135 42.9494 75.6773C42.5507 75.9411 42.0047 75.9268 41.4215 75.6373C40.4123 75.1347 39.5878 74.7013 38.9504 74.3333C18.5422 62.5507 2 33.8987 2 10.3333C2 9.59733 2.03464 8.66533 2.10623 7.54133C2.14716 6.89148 2.4078 6.41147 2.83555 6.19816C3.2633 5.98485 3.82633 6.05413 4.41101 6.392L12.5771 11.1067C12.8635 11.2717 13.1398 11.5539 13.3524 11.8984C13.5649 12.2428 13.6985 12.625 13.7271 12.9707C13.7803 13.6147 13.8288 14.1307 13.8749 14.528C14.3339 18.4914 15.2744 22.6316 16.6647 26.808C16.8841 27.468 16.7409 28.0227 16.3252 28.124L11.3415 29.3587C14.3887 39.3165 20.0469 49.1169 27.1471 56.7347L30.7035 53.044C30.8489 52.8933 31.061 52.8474 31.3028 52.9144C31.5446 52.9814 31.8009 53.157 32.0268 53.4107C34.9483 56.6997 38.0626 59.5811 41.2644 61.9573C41.5854 62.196 42.0081 62.4987 42.5346 62.8613C42.8192 63.0593 43.0828 63.3661 43.2744 63.722C43.466 64.078 43.5719 64.4578 43.5715 64.788L43.5692 64.7867Z" fill="url(#paint0_linear)"/>
<path d="M45.5692 63.7867L45.5692 73.216C45.5695 73.8913 45.348 74.4135 44.9494 74.6773C44.5507 74.9411 44.0047 74.9268 43.4215 74.6373C42.4123 74.1347 41.5878 73.7013 40.9504 73.3333C20.5422 61.5507 4 32.8987 4 9.33333C4 8.59733 4.03464 7.66533 4.10623 6.54133C4.14716 5.89148 4.4078 5.41147 4.83555 5.19816C5.2633 4.98485 5.82633 5.05413 6.41101 5.392L14.5771 10.1067C14.8635 10.2717 15.1398 10.5539 15.3524 10.8984C15.5649 11.2428 15.6985 11.625 15.7271 11.9707C15.7803 12.6147 15.8288 13.1307 15.8749 13.528C16.3339 17.4914 17.2744 21.6316 18.6647 25.808C18.8841 26.468 18.7409 27.0227 18.3252 27.124L13.3415 28.3587C16.3887 38.3165 22.0469 48.1169 29.1471 55.7347L32.7035 52.044C32.8489 51.8933 33.061 51.8474 33.3028 51.9144C33.5446 51.9814 33.8009 52.157 34.0268 52.4107C36.9483 55.6997 40.0626 58.5811 43.2644 60.9573C43.5854 61.196 44.0081 61.4987 44.5346 61.8613C44.8192 62.0593 45.0828 62.3661 45.2744 62.722C45.466 63.078 45.5719 63.4578 45.5715 63.788L45.5692 63.7867Z" fill="url(#paint1_linear)"/>
<path d="M47.5692 62.7867L47.5692 72.216C47.5695 72.8913 47.348 73.4135 46.9494 73.6773C46.5507 73.9411 46.0047 73.9268 45.4215 73.6373C44.4123 73.1347 43.5878 72.7013 42.9504 72.3333C22.5422 60.5507 6 31.8987 6 8.33333C6 7.59733 6.03464 6.66533 6.10623 5.54133C6.14716 4.89148 6.4078 4.41147 6.83555 4.19816C7.2633 3.98485 7.82633 4.05413 8.41101 4.392L16.5771 9.10667C16.8635 9.27172 17.1398 9.55389 17.3524 9.89836C17.5649 10.2428 17.6985 10.625 17.7271 10.9707C17.7803 11.6147 17.8288 12.1307 17.8749 12.528C18.3339 16.4914 19.2744 20.6316 20.6647 24.808C20.8841 25.468 20.7409 26.0227 20.3252 26.124L15.3415 27.3587C18.3887 37.3165 24.0469 47.1169 31.1471 54.7347L34.7035 51.044C34.8489 50.8933 35.061 50.8474 35.3028 50.9144C35.5446 50.9814 35.8009 51.157 36.0268 51.4107C38.9483 54.6997 42.0626 57.5811 45.2644 59.9573C45.5854 60.196 46.0081 60.4987 46.5346 60.8613C46.8192 61.0593 47.0828 61.3661 47.2744 61.722C47.466 62.078 47.5719 62.4578 47.5715 62.788L47.5692 62.7867Z" fill="url(#paint2_linear)"/>
<path d="M49.5692 61.7867L49.5692 71.216C49.5695 71.8913 49.348 72.4135 48.9494 72.6773C48.5507 72.9411 48.0047 72.9268 47.4215 72.6373C46.4123 72.1347 45.5878 71.7013 44.9504 71.3333C24.5422 59.5507 8 30.8987 8 7.33333C8 6.59733 8.03464 5.66533 8.10623 4.54133C8.14716 3.89148 8.4078 3.41147 8.83555 3.19816C9.2633 2.98485 9.82633 3.05413 10.411 3.392L18.5771 8.10667C18.8635 8.27172 19.1398 8.55389 19.3524 8.89836C19.5649 9.24283 19.6985 9.62502 19.7271 9.97067C19.7803 10.6147 19.8288 11.1307 19.8749 11.528C20.3339 15.4914 21.2744 19.6316 22.6647 23.808C22.8841 24.468 22.7409 25.0227 22.3252 25.124L17.3415 26.3587C20.3887 36.3165 26.0469 46.1169 33.1471 53.7347L36.7035 50.044C36.8489 49.8933 37.061 49.8474 37.3028 49.9144C37.5446 49.9814 37.8009 50.157 38.0268 50.4107C40.9483 53.6997 44.0626 56.5811 47.2644 58.9573C47.5854 59.196 48.0081 59.4987 48.5346 59.8613C48.8192 60.0593 49.0828 60.3661 49.2744 60.722C49.466 61.078 49.5719 61.4578 49.5715 61.788L49.5692 61.7867Z" fill="url(#paint3_linear)"/>
<path d="M51.5692 60.7867L51.5692 70.216C51.5695 70.8913 51.348 71.4135 50.9494 71.6773C50.5507 71.9411 50.0047 71.9268 49.4215 71.6373C48.4123 71.1347 47.5878 70.7013 46.9504 70.3333C26.5422 58.5507 10 29.8987 10 6.33333C10 5.59733 10.0346 4.66533 10.1062 3.54133C10.1472 2.89148 10.4078 2.41147 10.8355 2.19816C11.2633 1.98485 11.8263 2.05413 12.411 2.392L20.5771 7.10667C20.8635 7.27172 21.1398 7.55389 21.3524 7.89836C21.5649 8.24283 21.6985 8.62502 21.7271 8.97067C21.7803 9.61467 21.8288 10.1307 21.8749 10.528C22.3339 14.4914 23.2744 18.6316 24.6647 22.808C24.8841 23.468 24.7409 24.0227 24.3252 24.124L19.3415 25.3587C22.3887 35.3165 28.0469 45.1169 35.1471 52.7347L38.7035 49.044C38.8489 48.8933 39.061 48.8474 39.3028 48.9144C39.5446 48.9814 39.8009 49.157 40.0268 49.4107C42.9483 52.6997 46.0626 55.5811 49.2644 57.9573C49.5854 58.196 50.0081 58.4987 50.5346 58.8613C50.8192 59.0593 51.0828 59.3661 51.2744 59.722C51.466 60.078 51.5719 60.4578 51.5715 60.788L51.5692 60.7867Z" fill="url(#paint4_linear)"/>
<path d="M53.5692 59.7867L53.5692 69.216C53.5695 69.8913 53.348 70.4135 52.9494 70.6773C52.5507 70.9411 52.0047 70.9268 51.4215 70.6373C50.4123 70.1347 49.5878 69.7013 48.9504 69.3333C28.5422 57.5507 12 28.8987 12 5.33333C12 4.59733 12.0346 3.66533 12.1062 2.54133C12.1472 1.89148 12.4078 1.41147 12.8355 1.19816C13.2633 0.984853 13.8263 1.05413 14.411 1.392L22.5771 6.10667C22.8635 6.27172 23.1398 6.55389 23.3524 6.89836C23.5649 7.24283 23.6985 7.62502 23.7271 7.97067C23.7803 8.61467 23.8288 9.13067 23.8749 9.528C24.3339 13.4914 25.2744 17.6316 26.6647 21.808C26.8841 22.468 26.7409 23.0227 26.3252 23.124L21.3415 24.3587C24.3887 34.3165 30.0469 44.1169 37.1471 51.7347L40.7035 48.044C40.8489 47.8933 41.061 47.8474 41.3028 47.9144C41.5446 47.9814 41.8009 48.157 42.0268 48.4107C44.9483 51.6997 48.0626 54.5811 51.2644 56.9573C51.5854 57.196 52.0081 57.4987 52.5346 57.8613C52.8192 58.0593 53.0828 58.3661 53.2744 58.722C53.466 59.078 53.5719 59.4578 53.5715 59.788L53.5692 59.7867Z" fill="url(#paint5_linear)"/>
<path d="M40.299 65.75C39.5816 65.3358 39.5816 64.6642 40.299 64.25L49.8253 58.75C50.5428 58.3358 51.706 58.3358 52.4234 58.75C53.1408 59.1642 53.1408 59.8358 52.4234 60.25L42.8971 65.75C42.1797 66.1642 41.0165 66.1642 40.299 65.75Z" fill="#3E22DE"/>
<path d="M41.5692 65.7867L41.5692 75.216C41.5695 75.8913 41.348 76.4135 40.9494 76.6773C40.5508 76.9411 40.0047 76.9268 39.4215 76.6373C38.4123 76.1347 37.5878 75.7013 36.9504 75.3333C16.5422 63.5507 -6.36652e-07 34.8987 -1.17496e-07 11.3333C-1.01282e-07 10.5973 0.034641 9.66533 0.106232 8.54133C0.147161 7.89148 0.407797 7.41147 0.83555 7.19816C1.2633 6.98485 1.82633 7.05413 2.41102 7.392L10.5771 12.1067C10.8635 12.2717 11.1399 12.5539 11.3524 12.8984C11.5649 13.2428 11.6985 13.625 11.7271 13.9707C11.7803 14.6147 11.8288 15.1307 11.8749 15.528C12.3339 19.4914 13.2744 23.6316 14.6647 27.808C14.8841 28.468 14.7409 29.0227 14.3252 29.124L9.34153 30.3587C12.3887 40.3165 18.0469 50.1169 25.1471 57.7347L28.7035 54.044C28.8489 53.8933 29.061 53.8474 29.3028 53.9144C29.5447 53.9814 29.8009 54.157 30.0268 54.4107C32.9483 57.6997 36.0626 60.5811 39.2644 62.9573C39.5854 63.196 40.0081 63.4987 40.5346 63.8613C40.8192 64.0593 41.0829 64.3661 41.2744 64.722C41.466 65.078 41.5719 65.4578 41.5715 65.788L41.5692 65.7867Z" fill="#662EFF"/>
<path d="M41.1362 65.4684C41.1236 65.2791 41.0594 65.0692 40.9528 64.8711C40.8334 64.6492 40.6691 64.4579 40.4917 64.3341C39.9609 63.9685 39.5319 63.6613 39.203 63.4168L41.1362 65.4684ZM41.1362 65.4684L41.1362 65.5367L41.1362 74.966L41.1362 74.9662C41.1364 75.5149 40.9564 75.9392 40.6326 76.1535C40.3087 76.3679 39.8651 76.3563 39.3912 76.1211C38.3862 75.6205 37.5732 75.1929 36.9504 74.8333C16.7814 63.1887 0.433012 34.8725 0.433013 11.5833C0.433013 10.8635 0.466962 9.94391 0.53816 8.82609L0.538183 8.82572C0.571437 8.29771 0.783204 7.90771 1.13075 7.73439C1.4783 7.56108 1.93576 7.61736 2.41082 7.89189L2.41101 7.892L10.5771 12.6067L10.5775 12.6069C10.7565 12.7101 10.9292 12.8864 11.0621 13.1017C11.1949 13.3169 11.2783 13.5557 11.2963 13.7717C11.3496 14.4183 11.3988 14.943 11.4463 15.3518C11.9115 19.3684 12.8647 23.5642 14.2736 27.7967C14.4031 28.1864 14.3182 28.5122 14.0743 28.5716L14.0735 28.5718L9.08978 29.8065L8.80611 29.8768L8.94361 30.3261C12.0345 40.427 17.7741 50.3683 24.9763 58.0955L25.2966 58.4392L25.4993 58.2288L29.0557 54.5382C29.1421 54.4487 29.2681 54.4214 29.4118 54.4612C29.5553 54.501 29.7074 54.6051 29.8415 54.7555C32.8021 58.0885 35.9581 61.0085 39.2028 63.4166L41.1362 65.4684Z" stroke="#F7F0FF" stroke-opacity="0.19"/>
<defs>
<linearGradient id="paint0_linear" x1="31.5385" y1="-15.3077" x2="44.3474" y2="10.7456" gradientUnits="userSpaceOnUse">
<stop stop-color="#2B11BF"/>
<stop offset="0.411458" stop-color="#3F1CBF"/>
<stop offset="0.486634" stop-color="#3F1CBF"/>
<stop offset="0.492877" stop-color="#3D22DD"/>
<stop offset="0.673955" stop-color="#3D22DD"/>
<stop offset="0.679294" stop-color="#3F1CBF"/>
<stop offset="1" stop-color="#2B11BF"/>
</linearGradient>
<linearGradient id="paint1_linear" x1="33.5385" y1="-16.3077" x2="46.3474" y2="9.74561" gradientUnits="userSpaceOnUse">
<stop stop-color="#2B11BF"/>
<stop offset="0.411458" stop-color="#3F1CBF"/>
<stop offset="0.486634" stop-color="#3F1CBF"/>
<stop offset="0.492877" stop-color="#3D22DD"/>
<stop offset="0.673955" stop-color="#3D22DD"/>
<stop offset="0.679294" stop-color="#3F1CBF"/>
<stop offset="1" stop-color="#2B11BF"/>
</linearGradient>
<linearGradient id="paint2_linear" x1="35.5385" y1="-17.3077" x2="48.3474" y2="8.74561" gradientUnits="userSpaceOnUse">
<stop stop-color="#2B11BF"/>
<stop offset="0.411458" stop-color="#3F1CBF"/>
<stop offset="0.486634" stop-color="#3F1CBF"/>
<stop offset="0.492877" stop-color="#3D22DD"/>
<stop offset="0.673955" stop-color="#3D22DD"/>
<stop offset="0.679294" stop-color="#3F1CBF"/>
<stop offset="1" stop-color="#2B11BF"/>
</linearGradient>
<linearGradient id="paint3_linear" x1="37.5385" y1="-18.3077" x2="50.3474" y2="7.74561" gradientUnits="userSpaceOnUse">
<stop stop-color="#2B11BF"/>
<stop offset="0.411458" stop-color="#3F1CBF"/>
<stop offset="0.486634" stop-color="#3F1CBF"/>
<stop offset="0.492877" stop-color="#3D22DD"/>
<stop offset="0.673955" stop-color="#3D22DD"/>
<stop offset="0.679294" stop-color="#3F1CBF"/>
<stop offset="1" stop-color="#2B11BF"/>
</linearGradient>
<linearGradient id="paint4_linear" x1="39.5385" y1="-19.3077" x2="52.3474" y2="6.74561" gradientUnits="userSpaceOnUse">
<stop stop-color="#2B11BF"/>
<stop offset="0.411458" stop-color="#3F1CBF"/>
<stop offset="0.486634" stop-color="#3F1CBF"/>
<stop offset="0.492877" stop-color="#3D22DD"/>
<stop offset="0.673955" stop-color="#3D22DD"/>
<stop offset="0.679294" stop-color="#3F1CBF"/>
<stop offset="1" stop-color="#2B11BF"/>
</linearGradient>
<linearGradient id="paint5_linear" x1="41.5385" y1="-20.3077" x2="54.3474" y2="5.74561" gradientUnits="userSpaceOnUse">
<stop stop-color="#5729D0"/>
<stop offset="0.411458" stop-color="#3F1CBF"/>
<stop offset="0.486634" stop-color="#3F1CBF"/>
<stop offset="0.492877" stop-color="#3D22DD"/>
<stop offset="0.673955" stop-color="#3D22DD"/>
<stop offset="0.679294" stop-color="#3F1CBF"/>
<stop offset="1" stop-color="#2B11BF"/>
</linearGradient>
</defs>
</svg>
